<?xml version="1.0" encoding="UTF-8" standalone="no"?>
<svg
   viewBox="0 0 264.59509 250.00999"
   version="1.1"
   id="svg4"
   sodipodi:docname="42-for-net.svg"
   inkscape:version="1.3 (0e150ed6c4, 2023-07-21)"
   width="264.59509"
   height="250.00999"
   xmlns:inkscape="http://www.inkscape.org/namespaces/inkscape"
   xmlns:sodipodi="http://sodipodi.sourceforge.net/DTD/sodipodi-0.dtd"
   xmlns="http://www.w3.org/2000/svg"
   xmlns:svg="http://www.w3.org/2000/svg"
   xmlns:rdf="http://www.w3.org/1999/02/22-rdf-syntax-ns#"
   xmlns:cc="http://creativecommons.org/ns#"
   xmlns:dc="http://purl.org/dc/elements/1.1/">
  <defs
     id="defs4" />
  <sodipodi:namedview
     id="namedview4"
     pagecolor="#ffffff"
     bordercolor="#000000"
     borderopacity="0.25"
     inkscape:showpageshadow="2"
     inkscape:pageopacity="0.0"
     inkscape:pagecheckerboard="0"
     inkscape:deskcolor="#d1d1d1"
     inkscape:zoom="1.8472609"
     inkscape:cx="109.35109"
     inkscape:cy="186.76301"
     inkscape:window-width="2011"
     inkscape:window-height="1502"
     inkscape:window-x="1076"
     inkscape:window-y="460"
     inkscape:window-maximized="0"
     inkscape:current-layer="svg4"
     showguides="true">
    <sodipodi:guide
       position="50.615481,21.56365"
       orientation="1,0"
       id="guide1"
       inkscape:locked="false" />
    <sodipodi:guide
       position="161.31993,109.26106"
       orientation="0,-1"
       id="guide2"
       inkscape:locked="false" />
  </sodipodi:namedview>
  <title
     id="title1">swimlane-brand-dotnet-foundation</title>
  <path
     d="M 139.598,0 A 125.033,125.033 0 0 0 16.483,103.271 21.462,21.462 0 0 1 16.466,146.194 H 16.394 A 125.005,125.005 0 1 0 139.598,0 Z"
     fill="#68217a"
     id="path1"
     style="fill:#a8b1ff;fill-opacity:1" />
  <path
     d="M 31.586,125.113 A 15.793,15.793 0 1 1 15.798,109.32 15.792,15.792 0 0 1 31.586,125.113 Z"
     fill="#cf18fd"
     id="path4"
     style="fill:#43d392;fill-opacity:1" />
  <path
     style="font-weight:bold;font-size:96px;font-family:Inter;-inkscape-font-specification:'Inter Bold';fill:#1b1b1f"
     d="m 51.027539,128.49711 v -11.625 L 80.175266,70.951655 h 10.022728 v 16.090909 h -5.931819 l -18.375,29.079546 v 0.54545 h 41.420455 v 11.82955 z m 33.511364,12.27273 v -15.81819 l 0.272727,-5.14772 V 70.951655 h 13.840909 v 69.818185 z m 32.624987,0 v -10.63637 l 24.85227,-23.01136 q 3.17045,-3.06818 5.31818,-5.52273 2.18182,-2.454544 3.30682,-4.806816 1.125,-2.386364 1.125,-5.147728 0,-3.068181 -1.39773,-5.28409 -1.39773,-2.25 -3.81818,-3.443182 -2.42045,-1.227273 -5.48864,-1.227273 -3.20454,0 -5.59091,1.295455 -2.38636,1.295454 -3.68181,3.715909 -1.29546,2.420454 -1.29546,5.761363 h -14.01136 q 0,-6.852272 3.10227,-11.897727 3.10227,-5.045455 8.69318,-7.806818 5.59091,-2.761364 12.88637,-2.761364 7.5,0 13.05681,2.659091 5.59091,2.625 8.69319,7.295455 3.10227,4.670454 3.10227,10.704545 0,3.954546 -1.56818,7.806818 -1.53409,3.852272 -5.48864,8.556822 -3.95454,4.67045 -11.14773,11.21591 l -10.19318,9.98863 v 0.47727 h 29.31818 v 12.06819 z"
     id="text4"
     aria-label="42" />
  <path
     style="font-weight:600;font-size:42.6667px;font-family:Inter;-inkscape-font-specification:'Inter Semi-Bold';fill:#1b1b1f"
     d="m 64.576057,163.02547 v 4.24243 H 50.818471 v -4.24243 z M 54.257868,186.29822 V 160.8285 q 0,-2.34848 0.969698,-3.90909 0.984849,-1.56061 2.636365,-2.33334 1.651517,-0.77272 3.66667,-0.77272 1.424243,0 2.530305,0.22727 1.106061,0.22727 1.636364,0.40909 l -1.090909,4.24243 q -0.348486,-0.10606 -0.878789,-0.21212 -0.530303,-0.12122 -1.181819,-0.12122 -1.530304,0 -2.166668,0.74243 -0.621213,0.72727 -0.621213,2.09091 v 25.10608 z m 23.900017,0.45454 q -3.409094,0 -5.909096,-1.5 -2.500001,-1.5 -3.87879,-4.19697 -1.363638,-2.69697 -1.363638,-6.30304 0,-3.60606 1.363638,-6.31818 1.378789,-2.71213 3.87879,-4.21213 2.500002,-1.5 5.909096,-1.5 3.409093,0 5.909095,1.5 2.500002,1.5 3.863639,4.21213 1.378789,2.71212 1.378789,6.31818 0,3.60607 -1.378789,6.30304 -1.363637,2.69697 -3.863639,4.19697 -2.500002,1.5 -5.909095,1.5 z m 0.0303,-4.39394 q 1.848486,0 3.090911,-1.01515 1.242425,-1.03031 1.848486,-2.75758 0.621213,-1.72727 0.621213,-3.84849 0,-2.13636 -0.621213,-3.86364 -0.606061,-1.74242 -1.848486,-2.77273 -1.242425,-1.0303 -3.090911,-1.0303 -1.893941,0 -3.151518,1.0303 -1.242425,1.03031 -1.863638,2.77273 -0.606061,1.72728 -0.606061,3.86364 0,2.12122 0.606061,3.84849 0.621213,1.72727 1.863638,2.75758 1.257577,1.01515 3.151518,1.01515 z m 15.757563,3.9394 v -23.27275 h 5.318186 v 3.87879 h 0.242424 q 0.636369,-2.01515 2.181819,-3.10606 1.56061,-1.10606 3.56061,-1.10606 0.45455,0 1.01515,0.0455 0.57576,0.0303 0.95455,0.10606 v 5.04546 q -0.34849,-0.12121 -1.10606,-0.21212 -0.74243,-0.10606 -1.4394,-0.10606 -1.5,0 -2.69697,0.65152 -1.18182,0.63636 -1.86364,1.77273 -0.681816,1.13636 -0.681816,2.62121 v 13.68183 z m 17.636369,0.33333 q -1.37879,0 -2.36364,-0.9697 -0.98485,-0.96969 -0.96969,-2.36363 -0.0152,-1.36364 0.96969,-2.33334 0.98485,-0.9697 2.36364,-0.9697 1.33334,0 2.31818,0.9697 1.00001,0.9697 1.01516,2.33334 -0.0151,0.92424 -0.48485,1.68181 -0.45455,0.75758 -1.21212,1.21213 -0.74243,0.43939 -1.63637,0.43939 z m 14.50003,-13.96971 v 13.63638 h -5.48485 v -23.27275 h 5.24243 v 3.95455 h 0.27272 q 0.80303,-1.95455 2.56061,-3.10606 1.77273,-1.15152 4.37879,-1.15152 2.4091,0 4.19698,1.03031 1.80303,1.0303 2.78788,2.98485 1,1.95454 0.98485,4.74242 v 14.8182 h -5.48486 v -13.96971 q 0,-2.33333 -1.21212,-3.65152 -1.19697,-1.31818 -3.31818,-1.31818 -1.4394,0 -2.56061,0.63636 -1.10606,0.62122 -1.74243,1.80304 -0.62121,1.18181 -0.62121,2.86363 z m 30.83335,14.09092 q -3.50001,0 -6.04546,-1.45454 -2.53031,-1.4697 -3.89395,-4.15152 -1.36363,-2.69697 -1.36363,-6.34849 0,-3.59091 1.36363,-6.30304 1.37879,-2.72727 3.84849,-4.24242 2.4697,-1.53031 5.80304,-1.53031 2.15151,0 4.06061,0.69697 1.92424,0.68182 3.39394,2.12122 1.48485,1.43939 2.33333,3.66667 0.84849,2.21212 0.84849,5.27273 v 1.68182 h -19.07577 v -3.69698 h 13.81819 q -0.0151,-1.57575 -0.68182,-2.80303 -0.66667,-1.24242 -1.86364,-1.95455 -1.18182,-0.71212 -2.75758,-0.71212 -1.68182,0 -2.95454,0.81819 -1.27273,0.80303 -1.98485,2.12121 -0.69697,1.30303 -0.71213,2.86364 v 3.22727 q 0,2.03031 0.74243,3.48485 0.74242,1.4394 2.07576,2.21213 1.33333,0.75757 3.12121,0.75757 1.19697,0 2.16667,-0.33333 0.9697,-0.34849 1.68182,-1.01515 0.71212,-0.66667 1.07576,-1.65152 l 5.12121,0.57576 q -0.48484,2.0303 -1.84848,3.54546 -1.34849,1.5 -3.45455,2.33333 -2.10606,0.81818 -4.81818,0.81818 z m 26.60604,-23.72729 v 4.24243 h -13.3788 v -4.24243 z m -10.07576,-5.57576 h 5.48485 v 21.8485 q 0,1.10606 0.33333,1.69697 0.34849,0.57576 0.9091,0.78788 0.5606,0.21212 1.24242,0.21212 0.51515,0 0.9394,-0.0757 0.43939,-0.0758 0.66666,-0.13637 l 0.92425,4.28788 q -0.4394,0.15152 -1.25758,0.33334 -0.80303,0.18182 -1.9697,0.21212 -2.06061,0.0606 -3.71212,-0.62121 -1.65152,-0.69697 -2.62122,-2.15152 -0.95454,-1.45455 -0.93939,-3.63637 z"
     id="text5"
     aria-label="for.net" />
  <metadata
     id="metadata5">
    <rdf:RDF>
      <cc:Work
         rdf:about="">
        <dc:title>swimlane-brand-dotnet-foundation</dc:title>
      </cc:Work>
    </rdf:RDF>
  </metadata>
</svg>
