<svg width="128" height="32" viewBox="0 0 128 32" fill="none" xmlns="http://www.w3.org/2000/svg">
<path d="M26.9797 18.4872C26.9797 19.1737 26.717 19.771 26.1915 20.2795C25.6659 20.7882 24.9923 21.0424 24.1703 21.0424C23.4076 21.0424 22.7701 20.7966 22.2574 20.305C21.7445 19.8139 21.4883 19.233 21.4883 18.5634V14.1144C21.4883 13.4109 21.7445 12.8495 22.2574 12.43C22.7701 12.0106 23.3992 11.8008 24.145 11.8008C25.0686 11.8008 25.7721 11.9935 26.255 12.3793C26.7381 12.7651 26.9797 13.2546 26.9797 13.8473V18.4872ZM30.1069 4.29444C29.7591 4.26489 29.3229 4.25 28.7975 4.25C28.2806 4.25 27.8484 4.26489 27.5008 4.29444C27.1533 4.32444 26.9797 4.39444 26.9797 4.50422V10.0719C26.8441 9.90257 26.5157 9.69279 25.9946 9.44278C25.4735 9.19322 24.6999 9.06766 23.6747 9.06766C22.8694 9.06766 22.1154 9.16945 21.412 9.37278C20.7085 9.57634 20.0878 9.90035 19.5498 10.3452C19.0113 10.7901 18.5962 11.3453 18.304 12.0106C18.0115 12.6762 17.8653 13.4618 17.8653 14.3687V15.004C17.8653 15.0056 17.8633 15.0069 17.8633 15.0085V17.0763C17.8633 18.0423 17.5942 18.8579 17.0562 19.5232C16.5177 20.1888 15.8759 20.521 15.1303 20.521C14.2319 20.521 13.6027 20.2795 13.2425 19.7966C12.8852 19.3175 12.7065 18.755 12.7034 18.109V13.8729C12.7034 12.8644 12.4789 11.9977 12.0296 11.2733C11.5805 10.5486 10.9809 10.0004 10.2309 9.62701C9.48087 9.25411 8.65663 9.06766 7.75861 9.06766C6.6737 9.06766 5.83056 9.31767 5.22899 9.81768C4.62698 10.3181 4.22898 10.733 4.03408 11.0635V4.50422C4.03408 4.35178 3.56363 4.27533 2.62294 4.27533H2.26693H1.91114C0.970456 4.27533 0.5 4.35178 0.5 4.50422V23.2795C0.5 23.4491 1.08913 23.5338 2.26693 23.5338C3.44474 23.5338 4.03408 23.4491 4.03408 23.2795V15.1314C4.53387 14.216 5.00433 13.5278 5.445 13.0655C5.88546 12.6037 6.50014 12.3729 7.28816 12.3729C7.74572 12.3729 8.1144 12.4729 8.39418 12.6715C8.67374 12.8706 8.87708 13.1122 9.00419 13.3962C9.12842 13.6738 9.19086 13.932 9.19375 14.1729V19.0083C9.19375 20.4321 9.64932 21.5784 10.5605 22.4469C11.4711 23.316 12.6812 23.75 14.1896 23.75C15.1048 23.75 15.8846 23.5084 16.5286 23.0253C17.1724 22.5422 17.6173 22.1402 17.8633 21.8177L18.4046 21.2142C18.5982 21.6171 18.8477 21.9686 19.146 22.2753C19.1826 22.3162 19.2206 22.356 19.2604 22.3944C19.2838 22.4164 19.3069 22.4386 19.3307 22.4602C19.3671 22.4924 19.4053 22.5224 19.444 22.552C20.3973 23.3473 21.7787 23.75 23.5983 23.75C24.4881 23.75 25.2297 23.5613 25.823 23.1842C26.4159 22.8075 26.8186 22.4915 27.0306 22.2373V23.2795C27.0306 23.4491 27.6279 23.5338 28.8229 23.5338C30.0262 23.5338 30.628 23.4491 30.628 23.2795V4.50422C30.628 4.39444 30.4542 4.32444 30.1069 4.29444Z" fill="#98989f"/>
<path d="M40.7625 18.4872V13.8473C40.7625 13.2546 40.5209 12.7651 40.038 12.3793C39.5549 11.9935 38.8513 11.8008 37.9277 11.8008C37.182 11.8008 36.5528 12.0106 36.0401 12.43C35.5272 12.8495 35.271 13.4109 35.271 14.1144V18.5634C35.271 19.233 35.5272 19.8139 36.0401 20.305C36.5528 20.7966 37.1904 21.0424 37.9531 21.0424C38.7751 21.0424 39.4487 20.7882 39.9742 20.2795C40.4998 19.771 40.7625 19.1737 40.7625 18.4872ZM44.4108 23.2795C44.4108 23.4491 43.809 23.5338 42.6056 23.5338C41.4107 23.5338 40.8134 23.4491 40.8134 23.2795V22.2373C40.6014 22.4915 40.1987 22.8075 39.6058 23.1842C39.0124 23.5613 38.2709 23.75 37.3811 23.75C33.5592 23.75 31.648 21.9957 31.648 18.4872V14.3687C31.648 13.4618 31.7943 12.6762 32.0867 12.0106C32.379 11.3453 32.7941 10.7901 33.3325 10.3452C33.8705 9.90035 34.4912 9.57634 35.1948 9.37278C35.8981 9.16945 36.6522 9.06766 37.4575 9.06766C38.4826 9.06766 39.2562 9.19322 39.7773 9.44278C40.2985 9.69279 40.6269 9.90257 40.7625 10.0719V4.50422C40.7625 4.39444 40.936 4.32444 41.2836 4.29444C41.6312 4.26489 42.0634 4.25 42.5803 4.25C43.1056 4.25 43.5419 4.26489 43.8897 4.29444C44.237 4.32444 44.4108 4.39444 44.4108 4.50422V23.2795Z" fill="#98989f"/>
<path d="M52.0307 21.9195C52.0307 22.9284 51.946 23.4322 51.7765 23.4322H49.0435C47.9077 23.4322 47.1239 23.1673 46.6917 22.6377C46.2595 22.1084 46.0435 21.305 46.0435 20.2288V4.50444C46.0435 4.33488 46.6366 4.25021 47.8231 4.25021C49.0009 4.25021 49.59 4.33488 49.59 4.50444V19.3772C49.59 19.7586 49.6747 20.0301 49.8442 20.1908C50.0138 20.3517 50.2933 20.4321 50.6833 20.4321H51.7765C51.946 20.4321 52.0307 20.9279 52.0307 21.9195Z" fill="#98989f"/>
<path d="M61.6698 15.3094V14.2669C61.6698 13.5471 61.4111 12.9495 60.8945 12.4746C60.3776 12 59.7587 11.7628 59.0384 11.7628C58.5469 11.7628 58.0724 11.8728 57.6148 12.0933C57.1571 12.314 56.7948 12.6144 56.5279 12.9958C56.261 13.3771 56.1275 13.784 56.1275 14.2162V15.3094H61.6698ZM65.1528 17.7881H56.1784V18.5637C56.1784 19.2586 56.4453 19.8457 56.9793 20.3241C57.5131 20.803 58.1486 21.0424 58.886 21.0424C60.3689 21.0424 61.8434 20.6148 63.3096 19.7586C63.4876 19.7586 63.7672 20.1399 64.1485 20.9026C64.4706 21.5466 64.6317 21.9533 64.6317 22.1229C64.6317 22.1911 64.6146 22.2373 64.5808 22.2626C64.3857 22.4153 64.0979 22.5742 63.7163 22.7393C63.335 22.9046 62.8881 23.0618 62.3754 23.2098C61.8625 23.358 61.282 23.4851 60.6338 23.5911C59.9856 23.6971 59.4027 23.75 58.886 23.75C57.9962 23.75 57.1717 23.6249 56.4135 23.3751C55.655 23.1253 54.9834 22.7631 54.3988 22.2882C53.8139 21.8135 53.3563 21.2395 53.0259 20.5657C52.6954 19.8919 52.5301 19.1483 52.5301 18.3348V14.3687C52.5301 13.2929 52.8139 12.3522 53.3816 11.5466C53.9494 10.7415 54.7248 10.1275 55.7079 9.70345C56.691 9.27967 57.7755 9.06789 58.9622 9.06789C59.8349 9.06789 60.6358 9.159 61.3647 9.34122C62.0936 9.52367 62.7441 9.81991 63.3161 10.231C63.8881 10.6424 64.3372 11.1866 64.6634 11.8644C64.9895 12.5429 65.1528 13.3691 65.1528 14.3433V17.7881Z" fill="#98989f"/>
<path d="M76.9262 20.2541C76.5873 21.4917 75.8901 22.3833 74.835 22.93C73.7801 23.4767 72.5321 23.7498 71.0914 23.7498C70.0065 23.7498 68.888 23.5211 67.7355 23.0635C67.3795 22.9282 67.0257 22.7584 66.6742 22.5551C66.3224 22.3515 66.0619 22.1949 65.8924 22.0846C65.8497 22.0593 65.8288 22.0084 65.8288 21.9322C65.8288 21.7542 65.9855 21.3431 66.299 20.699C66.6975 19.9195 66.9939 19.5297 67.1888 19.5297C67.5873 19.7668 68.0109 19.9999 68.4602 20.2288C68.9093 20.4575 69.3691 20.6504 69.8393 20.807C70.3096 20.9642 70.7271 21.0424 71.0914 21.0424C71.7185 21.0424 72.2039 20.9555 72.547 20.7817C72.8901 20.6084 73.117 20.3224 73.227 19.9237C73.2779 19.7288 73.3032 19.5423 73.3032 19.3643C73.3032 18.7288 72.939 18.263 72.2101 17.9661C71.9812 17.8816 71.4856 17.7119 70.7229 17.4576C69.96 17.2034 69.3709 16.9998 68.9558 16.8474C68.066 16.4914 67.386 15.9767 66.9157 15.3029C66.4453 14.6291 66.2102 13.9109 66.2102 13.1482C66.2102 12.9957 66.2144 12.8813 66.2228 12.8051C66.3668 11.5004 66.8922 10.5508 67.7991 9.95768C68.706 9.36478 69.8667 9.06766 71.282 9.06766C72.1212 9.06766 72.9683 9.16122 73.8245 9.34744C74.6803 9.53389 75.409 9.77545 76.0108 10.0719C76.0788 10.1059 76.1126 10.1821 76.1126 10.3008C76.1126 10.4619 76.0108 10.8559 75.8075 11.483C75.655 11.9153 75.5341 12.2266 75.4453 12.4173C75.3564 12.608 75.2524 12.7033 75.1339 12.7033C74.8879 12.6271 74.5066 12.4982 73.9897 12.3155C73.4728 12.1335 72.9854 11.9873 72.5279 11.8771C72.0703 11.7673 71.6718 11.7117 71.3329 11.7117C70.8583 11.7117 70.5047 11.7673 70.2716 11.8771C70.0382 11.9873 69.8711 12.178 69.7693 12.4491C69.7187 12.5762 69.6931 12.708 69.6931 12.8431C69.6931 13.2838 69.9262 13.5931 70.3922 13.7711C70.604 13.8558 71.2205 14.0847 72.2418 14.4576C73.263 14.8307 73.905 15.0805 74.1677 15.2076C75.0912 15.6143 75.8095 16.1632 76.3224 16.8538C76.8351 17.5447 77.0915 18.3092 77.0915 19.1481C77.0915 19.4872 77.0362 19.8559 76.9262 20.2541Z" fill="#98989f"/>
<path d="M86.2335 10.733C86.2335 11.6991 86.1446 12.1822 85.9666 12.1822H82.7376V19.377C82.7376 19.7584 82.8203 20.0299 82.9856 20.1906C83.151 20.3517 83.4241 20.4322 83.8054 20.4322H85.3181C85.4877 20.4322 85.5726 20.9279 85.5726 21.9195C85.5726 22.9282 85.4877 23.4322 85.3181 23.4322H82.1912C81.4367 23.4322 80.8374 23.3096 80.3925 23.0635C79.9476 22.8178 79.638 22.4618 79.4644 21.9957C79.2907 21.53 79.2038 20.9406 79.2038 20.2288V12.1822H77.2971C77.1275 12.1822 77.0428 11.6991 77.0428 10.733C77.0428 9.75879 77.1275 9.27123 77.2971 9.27123H79.2038V6.38561C79.2038 6.2076 79.7929 6.11871 80.9707 6.11871C82.1485 6.11871 82.7376 6.2076 82.7376 6.38561V9.27123H85.9666C86.1446 9.27123 86.2335 9.75879 86.2335 10.733Z" fill="#98989f"/>
<path d="M96.4986 18.1694V14.6356C96.4986 14 96.365 13.4642 96.0981 13.0275C95.8312 12.5911 95.4772 12.2711 95.0368 12.0677C94.5961 11.8644 94.0961 11.7626 93.5367 11.7626C92.969 11.7626 92.4436 11.8691 91.9605 12.0804C91.4774 12.2924 91.094 12.6144 90.81 13.0466C90.526 13.4789 90.3842 14.0084 90.3842 14.6356V18.1694C90.3842 19.1101 90.6593 19.8241 91.2105 20.3115C91.7614 20.799 92.4645 21.0424 93.3207 21.0424C94.2105 21.0424 94.9623 20.7966 95.577 20.305C96.1915 19.8139 96.4986 19.1019 96.4986 18.1694ZM100.249 18.3854C100.249 19.5724 99.9391 20.5677 99.3207 21.3728C98.702 22.1782 97.8693 22.7758 96.8228 23.1651C95.7759 23.5549 94.6088 23.75 93.3207 23.75C91.3629 23.75 89.7593 23.2922 88.5093 22.3771C87.2591 21.4617 86.6342 20.1317 86.6342 18.3854V14.4193C86.6342 13.25 86.9393 12.2606 87.5495 11.4513C88.1597 10.6424 88.9878 10.0423 90.0347 9.65256C91.0811 9.263 92.2401 9.06789 93.5114 9.06789C94.7908 9.06789 95.9393 9.263 96.9562 9.65256C97.9731 10.0423 98.776 10.6377 99.3651 11.4386C99.954 12.2393 100.249 13.2331 100.249 14.4193V18.3854Z" fill="#98989f"/>
<path d="M113.015 21.7924C112.499 22.25 111.808 22.6906 110.943 23.1144C110.079 23.5382 108.965 23.75 107.6 23.75C106.448 23.75 105.39 23.5616 104.429 23.1844C103.467 22.8075 102.695 22.212 102.115 21.3984C101.534 20.5848 101.244 19.5637 101.244 18.3348V14.2671C101.244 13.1911 101.53 12.2586 102.102 11.4704C102.674 10.6824 103.439 10.0848 104.397 9.67812C105.354 9.27122 106.397 9.06789 107.524 9.06789C108.516 9.06789 109.386 9.16789 110.136 9.36656C110.886 9.56567 111.469 9.77968 111.884 10.0086C112.299 10.2375 112.642 10.4581 112.914 10.6695C112.939 10.695 112.952 10.733 112.952 10.7839C112.952 10.945 112.765 11.3606 112.393 12.0297C111.96 12.7755 111.647 13.1484 111.452 13.1484C111.307 13.0298 111.128 12.89 110.912 12.7289C110.696 12.5682 110.464 12.4195 110.219 12.284C109.973 12.1488 109.642 12.0233 109.227 11.9091C108.812 11.7946 108.346 11.7373 107.829 11.7373C106.905 11.7373 106.162 12.0088 105.598 12.5509C105.034 13.0933 104.753 13.8813 104.753 14.9154C104.753 15.1187 104.751 15.3967 104.746 15.748C104.742 16.0996 104.74 16.4963 104.74 16.9365C104.74 17.4025 104.744 17.6403 104.753 17.6483C104.753 17.9961 104.776 18.333 104.823 18.659C104.869 18.9852 104.994 19.3326 105.198 19.7012C105.401 20.0699 105.713 20.375 106.132 20.6166C106.551 20.8582 107.117 20.9788 107.829 20.9788C108.498 20.9788 109.07 20.8728 109.545 20.661C110.02 20.4495 110.655 20.0721 111.452 19.5297C111.485 19.5128 111.511 19.5043 111.528 19.5043C111.596 19.5043 111.662 19.5344 111.725 19.5932C111.789 19.6526 111.854 19.7268 111.922 19.8157C111.99 19.9048 112.06 20.0064 112.132 20.1208C112.204 20.2353 112.291 20.3686 112.393 20.5213C112.833 21.1822 113.054 21.572 113.054 21.6906C113.054 21.7335 113.041 21.7671 113.015 21.7924Z" fill="#98989f"/>
<path d="M126.462 23.2795C126.479 23.2969 126.487 23.3135 126.487 23.3304C126.487 23.466 125.775 23.5338 124.352 23.5338C123.741 23.5338 123.275 23.5211 122.953 23.4956C122.631 23.4702 122.411 23.3984 122.292 23.2795L117.869 18.0676L117.5 18.4872V23.2795C117.5 23.4491 116.911 23.5338 115.733 23.5338C114.555 23.5338 113.966 23.4491 113.966 23.2795V4.50422C113.966 4.33466 114.555 4.25 115.733 4.25C116.911 4.25 117.5 4.33466 117.5 4.50422V14.1907L121.898 9.52545C122.059 9.37278 122.745 9.29656 123.957 9.29656H124.631C125.691 9.29656 126.22 9.34745 126.22 9.44901C126.22 9.46634 126.212 9.48301 126.195 9.4999L120.208 15.8049L126.462 23.2795Z" fill="#98989f"/>
</svg>
